<?xml version="1.0" encoding="UTF-8" standalone="no"?>
<svg
   xmlns:dc="http://purl.org/dc/elements/1.1/"
   xmlns:cc="http://creativecommons.org/ns#"
   xmlns:rdf="http://www.w3.org/1999/02/22-rdf-syntax-ns#"
   xmlns:svg="http://www.w3.org/2000/svg"
   xmlns="http://www.w3.org/2000/svg"
   xmlns:sodipodi="http://sodipodi.sourceforge.net/DTD/sodipodi-0.dtd"
   xmlns:inkscape="http://www.inkscape.org/namespaces/inkscape"
   version="1.1"
   id="svg2"
   xml:space="preserve"
   width="1540"
   height="600"
   viewBox="0 0 1540 599.99999"
   sodipodi:docname="logo.svg"
   inkscape:version="1.0.2 (e86c870879, 2021-01-15)"><metadata
     id="metadata8"><rdf:RDF><cc:Work
         rdf:about=""><dc:format>image/svg+xml</dc:format><dc:type
           rdf:resource="http://purl.org/dc/dcmitype/StillImage" /><dc:title></dc:title></cc:Work></rdf:RDF></metadata><defs
     id="defs6"><clipPath
       clipPathUnits="userSpaceOnUse"
       id="clipPath18"><path
         d="M 0,841.89 H 1190.55 V 0 H 0 Z"
         id="path16" /></clipPath></defs><sodipodi:namedview
     pagecolor="#ffffff"
     bordercolor="#666666"
     borderopacity="1"
     objecttolerance="10"
     gridtolerance="10"
     guidetolerance="10"
     inkscape:pageopacity="0"
     inkscape:pageshadow="2"
     inkscape:window-width="1769"
     inkscape:window-height="1415"
     id="namedview4"
     showgrid="false"
     inkscape:zoom="0.5670574"
     inkscape:cx="894.57885"
     inkscape:cy="338.59082"
     inkscape:window-x="789"
     inkscape:window-y="23"
     inkscape:window-maximized="0"
     inkscape:current-layer="g934"
     inkscape:document-rotation="0" /><g
     id="g10"
     inkscape:groupmode="layer"
     inkscape:label="Ivory Label - Imagotipo A2 - General"
     transform="matrix(1.3333333,0,0,-1.3333333,0,1122.52)"><g
       id="g12"><g
         id="g14"
         clip-path="url(#clipPath18)"><g
           id="g934"
           transform="translate(-16.123583,0.45973253)"><g
             id="g24"
             transform="translate(231.3647,822.1904)"
             inkscape:export-xdpi="89"
             inkscape:export-ydpi="89"><path
               d="m 0,0 c 0,-4.592 0.002,-9.185 -0.002,-13.777 0,-0.846 0.002,-1.693 -0.046,-2.536 -0.049,-0.852 -0.562,-1.278 -1.394,-1.354 -2.286,-0.208 -4.571,-0.419 -6.856,-0.627 -16.821,-1.532 -33.09,-5.418 -48.88,-11.384 -19.736,-7.456 -37.704,-17.944 -53.875,-31.478 -15.314,-12.818 -28.286,-27.69 -38.911,-44.622 -11.613,-18.505 -19.626,-38.475 -24.374,-59.753 -3.277,-14.683 -4.489,-29.572 -4.199,-44.628 0.225,-11.649 1.608,-23.132 3.954,-34.505 1.807,-8.76 4.379,-17.321 7.453,-25.726 8.357,-22.856 20.675,-43.342 36.997,-61.381 15.395,-17.015 33.26,-30.841 53.722,-41.311 16.571,-8.479 33.999,-14.399 52.276,-17.798 6.764,-1.257 13.594,-2.177 20.482,-2.547 0.723,-0.039 1.451,-0.065 2.168,-0.163 1.035,-0.14 1.379,-0.559 1.454,-1.713 0.04,-0.602 0.03,-1.208 0.03,-1.812 C 0,-406.783 0,-416.451 0,-426.12 c 0,-0.484 0.012,-0.968 -0.012,-1.45 -0.085,-1.733 -0.413,-2.066 -2.262,-1.911 -5.295,0.443 -10.606,0.787 -15.874,1.456 -8.385,1.067 -16.718,2.481 -24.935,4.514 -21.712,5.374 -42.246,13.632 -61.514,25.031 -25.5,15.085 -47.093,34.543 -64.934,58.15 -13.42,17.758 -23.827,37.174 -31.449,58.101 -4.727,12.98 -8.193,26.28 -10.513,39.875 -1.238,7.258 -2.054,14.579 -2.536,21.944 -0.506,7.729 -0.698,15.45 -0.373,23.181 1.202,28.678 7.569,56.151 19.175,82.422 10.507,23.786 24.749,45.078 42.672,63.872 15.359,16.106 32.766,29.624 52.198,40.538 14.597,8.198 29.904,14.686 45.909,19.529 9.718,2.941 19.62,5.093 29.661,6.645 7.171,1.108 14.353,1.992 21.61,2.202 0.603,0.017 1.208,0.116 1.807,0.083 0.834,-0.046 1.305,-0.531 1.329,-1.385 0.024,-0.846 0.039,-1.692 0.039,-2.537 C 0.002,9.427 0,4.713 0,0"
               style="fill:#1d1d1b;fill-opacity:1;fill-rule:evenodd;stroke:none"
               id="path26" /></g><g
             id="g28"
             transform="translate(250.97071,410.5635)"
             inkscape:export-xdpi="89"
             inkscape:export-ydpi="89"><path
               d="m 0,0 c 0,4.835 -0.001,9.669 0,14.503 0,0.604 -0.015,1.21 0.02,1.812 0.082,1.431 0.306,1.688 1.691,1.821 2.524,0.241 5.055,0.423 7.577,0.678 31.141,3.151 59.809,13.355 85.626,30.999 41.441,28.323 67.743,67.132 78.952,116.08 2.322,10.139 3.568,20.451 4.05,30.857 1.662,35.891 -5.869,69.739 -23.649,100.94 -27.256,47.827 -67.898,78.334 -121.351,91.634 -9.742,2.425 -19.684,3.755 -29.697,4.506 -0.722,0.054 -1.446,0.104 -2.164,0.191 -0.527,0.063 -0.886,0.374 -0.945,0.917 -0.066,0.598 -0.105,1.203 -0.106,1.804 -0.005,10.031 -0.004,20.062 -0.003,30.093 0,0.483 -0.007,0.968 0.03,1.449 0.083,1.068 0.504,1.5 1.633,1.456 2.655,-0.105 5.317,-0.183 7.959,-0.443 11.309,-1.109 22.515,-2.842 33.563,-5.561 37.625,-9.261 70.726,-26.994 99.087,-53.359 33.015,-30.69 54.864,-68.041 65.615,-111.831 2.884,-11.749 4.651,-23.684 5.575,-35.758 0.711,-9.297 0.845,-18.599 0.373,-27.89 C 212.52,168.975 206.972,143.975 196.972,119.99 169.781,54.771 113.78,6.335 45.176,-11.229 35.106,-13.808 24.896,-15.7 14.536,-16.688 10.568,-17.067 6.597,-17.405 2.625,-17.73 0.089,-17.938 0.024,-17.89 0.009,-15.228 -0.02,-10.151 0,-5.075 0,0"
               style="fill:#1d1d1b;fill-opacity:1;fill-rule:evenodd;stroke:none"
               id="path30" /></g><g
             id="g32"
             transform="translate(251.27441,588.8057)"
             inkscape:export-xdpi="89"
             inkscape:export-ydpi="89"><path
               d="m 0,0 c 0,34.57 -0.013,69.141 0.016,103.711 0.004,4.467 0.174,8.932 0.95,13.356 2.442,13.911 9.175,25.328 20.025,34.296 8.204,6.782 17.645,10.797 28.208,12.229 3.126,0.424 6.245,0.662 9.389,0.528 2.357,-0.1 2.489,-0.265 2.567,-2.474 0.021,-0.604 0.008,-1.209 0.008,-1.813 0,-70.955 0.063,-141.909 -0.043,-212.862 -0.029,-18.957 -7.477,-34.787 -21.889,-47.086 -10.527,-8.986 -22.869,-13.793 -36.773,-14.372 -0.241,-0.01 -0.481,-0.065 -0.722,-0.065 -1.125,0 -1.614,0.373 -1.674,1.414 -0.07,1.205 -0.06,2.416 -0.06,3.624 C -0.001,-73.01 0,-36.505 0,0"
               style="fill:#1d1d1b;fill-opacity:1;fill-rule:evenodd;stroke:none"
               id="path34" /></g><g
             id="g36"
             transform="translate(680.2891,510.29)"
             inkscape:export-xdpi="89"
             inkscape:export-ydpi="89"><path
               d="m 0,0 c -1.372,0.848 -1.955,1.914 -2.725,2.767 -5.953,6.596 -13.029,11.47 -21.578,14.08 -4.777,1.458 -9.699,1.943 -14.669,2.004 -7.331,0.09 -14.447,-0.994 -21.186,-4.021 -9.704,-4.359 -17.138,-11.199 -22.163,-20.576 -10.085,-18.816 -8.271,-41.044 4.125,-57.075 8.68,-11.227 20.275,-17.252 34.496,-18.062 5.688,-0.324 11.359,-0.173 16.936,1.129 9.753,2.275 17.751,7.402 24.178,15.039 0.69,0.82 1.37,1.651 2.026,2.443 0.902,-0.288 0.773,-0.959 0.773,-1.523 0.012,-11.722 -0.018,-23.444 0.044,-35.166 0.008,-1.631 -0.63,-2.699 -1.791,-3.712 -4.975,-4.334 -10.546,-7.649 -16.707,-9.987 -10.334,-3.922 -21.056,-5.171 -32.037,-4.651 -7.886,0.374 -15.644,1.557 -23.064,4.29 -24.837,9.147 -41.459,26.327 -49.832,51.441 -4.107,12.321 -5.257,25.006 -4.445,37.911 1.042,16.554 6.073,31.782 15.836,45.211 13.284,18.272 31.279,29.148 53.588,32.692 11.21,1.782 22.414,1.517 33.402,-1.591 8.604,-2.434 16.252,-6.729 23.066,-12.53 1.398,-1.188 2.006,-2.481 1.993,-4.364 C 0.184,24.632 0.229,13.514 0.217,2.396 0.217,1.719 0.098,1.042 0,0"
               style="fill:#1d1d1b;fill-opacity:1;fill-rule:evenodd;stroke:none"
               id="path38" /></g><g
             id="g40"
             transform="translate(803.5469,512.0332)"
             inkscape:export-xdpi="89"
             inkscape:export-ydpi="89"><path
               d="m 0,0 c -0.861,1.041 -0.646,1.787 -0.646,2.475 -0.016,10.878 0.049,21.756 -0.065,32.633 -0.021,2.094 0.791,3.306 2.34,4.502 7.797,6.019 16.543,9.856 26.15,11.917 8.34,1.789 16.743,2.599 25.206,1.495 26.685,-3.476 47.47,-16.14 61.117,-39.721 6.597,-11.4 9.976,-23.733 10.905,-36.843 0.783,-11.057 0.214,-22.003 -2.372,-32.764 -8.761,-36.463 -35.261,-55.743 -62.744,-61.14 -11.395,-2.239 -22.803,-2.514 -34.167,0.124 -9.071,2.104 -17.287,6.065 -24.637,11.814 -1.238,0.968 -1.788,2.055 -1.778,3.681 0.065,11.241 0.034,22.482 0.037,33.723 0,0.362 -0.01,0.73 0.054,1.083 0.037,0.205 0.168,0.465 0.335,0.551 0.16,0.082 0.496,0.05 0.619,-0.07 0.691,-0.673 1.332,-1.398 2.006,-2.087 8.491,-8.671 18.77,-13.396 30.911,-14.017 4.233,-0.216 8.459,-0.188 12.643,0.572 16.701,3.036 28.635,12.416 35.751,27.673 C 92.099,-32.033 85.402,-6.922 67.259,7.412 56.78,15.689 44.728,18.624 31.515,17.176 19.292,15.836 9.256,10.354 1.061,1.312 0.737,0.956 0.453,0.563 0,0"
               style="fill:#1d1d1b;fill-opacity:1;fill-rule:evenodd;stroke:none"
               id="path42" /></g><g
             id="g44"
             transform="translate(230.91161,616.3193)"
             inkscape:export-xdpi="89"
             inkscape:export-ydpi="89"><path
               d="m 0,0 c 0,-28.276 0,-56.553 0,-84.83 0,-1.087 0.018,-2.176 -0.011,-3.263 -0.059,-2.288 -0.108,-2.365 -2.556,-2.35 -9.888,0.057 -19.148,2.629 -27.608,7.64 -15.841,9.385 -25.06,23.373 -27.875,41.538 -0.479,3.09 -0.608,6.259 -0.616,9.392 -0.051,21.268 -0.054,42.536 -0.015,63.803 0.02,11.207 2.44,21.808 8.406,31.434 8.88,14.329 21.662,23.103 38.119,26.518 3.303,0.685 6.673,1.13 10.073,1.073 1.831,-0.03 1.999,-0.203 2.067,-2.138 C 0.022,87.731 0,86.643 0,85.555 0,57.037 0,28.519 0,0"
               style="fill:#1d1d1b;fill-opacity:1;fill-rule:evenodd;stroke:none"
               id="path46" /></g><g
             id="g48"
             transform="translate(1150.8584,816.7949)"
             inkscape:export-xdpi="89"
             inkscape:export-ydpi="89"><path
               d="m 0,0 c 0.092,-2.83 -0.593,-5.498 -1.616,-8.112 -4.224,-10.797 -8.428,-21.601 -12.635,-32.404 -20.075,-51.538 -40.155,-103.074 -60.207,-154.621 -1.377,-3.54 -3.232,-6.718 -5.838,-9.5 -7.078,-7.555 -17.606,-6.529 -23.611,-2.708 -8.973,5.708 -10.186,15.699 -7.684,22.146 3.06,7.88 6.076,15.777 9.13,23.659 21.334,55.065 42.673,110.128 64.005,165.194 0.393,1.012 0.678,2.067 1.084,3.072 2.753,6.796 10.674,14.809 22.484,12.303 C -8.032,17.574 0.45,9.876 0,0"
               style="fill:#1d1d1b;fill-opacity:1;fill-rule:evenodd;stroke:none"
               id="path50" /></g><g
             id="g52"
             transform="translate(1131.5615,507.2832)"
             inkscape:export-xdpi="89"
             inkscape:export-ydpi="89"><path
               d="m 0,0 c 0,31.291 0.007,62.582 -0.015,93.873 -0.001,2.31 0.099,4.591 0.737,6.817 2.797,9.756 12.261,17.152 24.29,13.679 7.362,-2.126 11.573,-7.547 13.337,-14.896 0.45,-1.878 0.539,-3.813 0.534,-5.758 C 38.855,82.238 38.87,70.761 38.87,59.283 c 0,-50.501 -0.002,-101.002 0.006,-151.502 0,-2.178 -0.063,-4.342 -0.414,-6.499 -1.309,-8.058 -7.926,-14.476 -16.063,-15.475 -6.625,-0.815 -12.451,0.833 -17.182,5.732 -3.345,3.464 -4.939,7.664 -5.2,12.413 C -0.043,-94.964 0,-93.873 0,-92.786 -0.001,-61.857 -0.001,-30.929 0,0"
               style="fill:#1d1d1b;fill-opacity:1;fill-rule:evenodd;stroke:none"
               id="path54" /></g><g
             id="g56"
             transform="translate(793.6367,507.1855)"
             inkscape:export-xdpi="89"
             inkscape:export-ydpi="89"><path
               d="m 0,0 c 0,-30.452 0,-60.905 -0.001,-91.357 0,-1.209 -0.084,-2.423 0.008,-3.624 0.692,-9.129 -8.24,-20.031 -20.468,-19.317 -8.745,0.511 -16.351,6.97 -18.102,15.632 -0.409,2.023 -0.51,4.062 -0.509,6.125 0.014,31.057 0.009,62.113 0.009,93.17 0,30.815 0.007,61.63 -0.013,92.445 -10e-4,2.186 0.109,4.35 0.582,6.48 1.665,7.507 8.22,15.205 18.616,15.376 10.274,0.169 17.812,-7.451 19.398,-14.911 0.224,-1.057 0.355,-2.145 0.407,-3.225 0.079,-1.689 0.07,-3.382 0.07,-5.074 C 0.001,61.146 0,30.573 0,0"
               style="fill:#1d1d1b;fill-opacity:1;fill-rule:evenodd;stroke:none"
               id="path58" /></g><g
             id="g60"
             transform="translate(999.9561,466.0771)"
             inkscape:export-xdpi="89"
             inkscape:export-ydpi="89"><path
               d="m 0,0 c -5.558,0 -11.114,0 -16.672,-0.001 -0.724,0 -1.451,0.016 -2.174,-0.022 -1.61,-0.086 -1.998,-0.458 -1.793,-1.953 0.246,-1.792 0.521,-3.59 0.95,-5.345 2.286,-9.376 7.269,-17.03 14.898,-22.936 6.328,-4.899 13.453,-8.003 21.359,-9.295 0.357,-0.058 0.716,-0.108 1.074,-0.17 3.357,-0.583 3.374,-0.583 3.378,-4.065 0.009,-8.698 0.003,-17.397 0.001,-26.095 0,-0.724 0.012,-1.452 -0.044,-2.173 -0.085,-1.089 -0.51,-1.542 -1.632,-1.434 -2.882,0.276 -5.788,0.479 -8.624,1.027 -29.912,5.779 -50.631,23.178 -63.297,50.525 -5.687,12.279 -7.979,25.321 -7.236,38.8 2.137,38.737 27.541,67.466 58.517,78.128 6.085,2.095 12.373,3.205 18.743,3.931 0.717,0.082 1.447,0.079 2.17,0.088 0.897,0.011 1.282,-0.534 1.347,-1.35 0.047,-0.6 0.055,-1.206 0.055,-1.809 0.002,-8.941 0.002,-17.88 0.001,-26.821 0,-0.482 0.007,-0.967 -0.023,-1.449 -0.093,-1.435 -0.283,-1.638 -1.635,-1.895 -2.488,-0.473 -5.024,-0.782 -7.454,-1.463 -15.134,-4.244 -25.59,-13.567 -30.716,-28.589 -0.117,-0.344 -0.267,-0.678 -0.35,-1.029 -1.372,-5.775 -1.657,-5.15 3.786,-5.161 10.993,-0.022 21.987,-0.003 32.981,-0.009 3.229,-0.002 3.42,0.254 3.415,-3.387 -0.01,-7.611 0,-15.223 -0.008,-22.833 C 21.016,2.493 20.97,1.769 20.884,1.053 20.82,0.521 20.438,0.173 19.923,0.128 18.964,0.043 17.998,0.007 17.034,0.005 11.356,-0.006 5.679,0 0,0"
               style="fill:#1d1d1b;fill-opacity:1;fill-rule:evenodd;stroke:none"
               id="path62" /></g><g
             id="g64"
             transform="translate(799.6377,703.5986)"
             inkscape:export-xdpi="89"
             inkscape:export-ydpi="89"><path
               d="m 0,0 c 0.833,0.2 1.751,0.469 2.688,0.637 19.354,3.471 31.963,14.883 37.818,33.354 4.935,15.573 2.885,30.634 -6.14,44.412 -7.488,11.434 -18.239,18.038 -31.679,20.32 -0.12,0.02 -0.242,0.022 -0.361,0.04 -2.652,0.413 -2.688,0.414 -2.692,3.205 -0.016,10.273 -0.008,20.546 -0.003,30.818 0,0.603 0.025,1.208 0.081,1.808 0.067,0.718 0.537,1.046 1.217,1.053 0.723,0.007 1.449,-0.019 2.172,-0.068 36.507,-2.52 64.556,-27.386 74.257,-57.49 C 81.35,65.707 83.017,53.063 81.471,40.191 77.78,9.455 62.63,-13.621 34.81,-27.882 26.78,-31.997 18.183,-34.349 9.252,-35.534 6.616,-35.884 3.986,-36.272 1.32,-36.27 c -1.327,0.001 -1.61,0.31 -1.676,1.738 -0.023,0.483 -0.016,0.967 -0.016,1.45 -0.001,10.032 -0.006,20.062 0.007,30.094 C -0.364,-2.034 -0.531,-1.051 0,0"
               style="fill:#1d1d1b;fill-opacity:1;fill-rule:evenodd;stroke:none"
               id="path66" /></g><g
             id="g68"
             transform="translate(790.0518,821.1611)"
             inkscape:export-xdpi="89"
             inkscape:export-ydpi="89"><path
               d="m 0,0 c 0.002,-5.197 0.019,-10.394 -0.005,-15.59 -0.014,-2.798 -0.042,-2.819 -2.703,-3.208 -5.679,-0.829 -11.063,-2.574 -16.026,-5.444 -14.008,-8.1 -22.01,-20.291 -24.322,-36.241 -1.608,-11.095 0.011,-21.726 5.348,-31.609 7.407,-13.718 18.875,-21.994 34.259,-24.774 3.783,-0.684 3.438,-0.319 3.445,-4.036 0.019,-9.789 0.007,-19.579 0.006,-29.368 0,-0.605 0.01,-1.209 -0.02,-1.813 -0.073,-1.503 -0.296,-1.748 -1.667,-1.748 -0.844,0 -1.692,0.039 -2.534,0.105 -17.08,1.338 -32.477,7.087 -45.967,17.708 -15.073,11.867 -24.761,27.253 -29.37,45.81 -5.394,21.726 -3.366,42.833 6.912,62.71 12.278,23.743 31.916,38.297 58.04,43.969 3.879,0.842 7.882,1.16 11.843,1.565 2.595,0.264 2.734,0.069 2.75,-2.446 C 0.022,10.394 -0.001,5.197 0,0"
               style="fill:#1d1d1b;fill-opacity:1;fill-rule:evenodd;stroke:none"
               id="path70" /></g><g
             id="g72"
             transform="translate(690.02439,479.1348)"
             inkscape:export-xdpi="89"
             inkscape:export-ydpi="89"><path
               d="m 0,0 c 0,21.867 -0.001,43.734 0.003,65.603 0,1.207 -0.055,2.423 0.067,3.621 0.949,9.328 8.783,16.704 18.146,17.128 9.713,0.44 18.173,-6.019 20.116,-15.304 0.476,-2.27 0.524,-4.551 0.524,-6.848 -0.003,-32.982 -0.002,-65.965 -0.002,-98.947 0,-10.149 -0.014,-20.297 0.007,-30.445 0.006,-2.681 -0.274,-5.294 -1.205,-7.83 -2.573,-7.017 -7.377,-11.607 -14.798,-12.883 -7.907,-1.362 -14.556,1.054 -19.466,7.609 -2.249,3.003 -3.187,6.464 -3.377,10.157 -0.05,0.964 -0.014,1.933 -0.014,2.9 C 0,-43.493 0,-21.747 0,0"
               style="fill:#1d1d1b;fill-opacity:1;fill-rule:evenodd;stroke:none"
               id="path74" /></g><g
             id="g76"
             transform="translate(899.19339,753.7061)"
             inkscape:export-xdpi="89"
             inkscape:export-ydpi="89"><path
               d="m 0,0 c 0,21.99 0.05,43.98 -0.034,65.97 -0.022,5.662 1.945,10.407 5.795,14.382 5.718,5.902 12.721,7.252 20.319,4.753 7.295,-2.399 11.454,-7.758 12.656,-15.34 0.244,-1.541 0.298,-3.127 0.294,-4.692 -0.095,-43.616 -0.211,-87.233 -0.321,-130.849 -0.005,-2.056 -0.155,-4.078 -0.594,-6.11 C 36.497,-79.382 28.649,-86.392 19.663,-86.53 8.141,-86.708 -0.033,-76.626 0.004,-67.419 0.014,-65.124 0,-62.828 0,-60.532 -0.001,-40.354 0,-20.177 0,0"
               style="fill:#1d1d1b;fill-opacity:1;fill-rule:evenodd;stroke:none"
               id="path78" /></g><g
             id="g80"
             transform="translate(626.28909,667.2881)"
             inkscape:export-xdpi="89"
             inkscape:export-ydpi="89"><path
               d="m 0,0 c -3.267,-0.266 -6.817,0.689 -10.049,2.833 -1.786,1.187 -3.961,1.782 -5.379,3.528 0.246,2.179 1.191,4.147 1.89,6.185 16.684,48.634 33.391,97.259 50.047,145.901 0.997,2.911 2.393,5.523 4.359,7.858 6.454,7.662 16.758,7.489 22.79,4.295 4.763,-2.523 7.456,-6.788 9.129,-11.711 1.402,-4.126 1.229,-8.243 -0.329,-12.4 C 61.824,118.121 51.268,89.724 40.688,61.335 35.041,46.18 29.405,31.02 23.751,15.866 20.689,7.66 14.877,2.546 6.368,0.473 4.468,0.01 2.54,0.012 0,0"
               style="fill:#1d1d1b;fill-opacity:1;fill-rule:evenodd;stroke:none"
               id="path82" /></g><path
             id="path86"
             style="fill:#1d1d1b;fill-opacity:1;fill-rule:evenodd;stroke:none;stroke-width:1.33333"
             d="M 668.93164 291.86719 C 658.32015 291.69941 649.24206 298.08472 644.96289 308.43164 C 643.46822 312.04364 642.99405 315.84553 642.99805 319.76953 C 643.04205 361.49086 643.02539 403.21226 643.02539 444.93359 C 643.02539 486.33359 643.02601 527.73353 643.02734 569.13086 C 643.02734 570.74286 642.95512 572.35889 643.06445 573.96289 C 643.49512 580.29222 645.71419 585.85416 650.24219 590.41016 C 656.64619 596.85682 664.45043 598.91428 673.25977 597.73828 C 683.83843 596.32361 692.56097 587.781 694.29297 577.26367 C 694.76764 574.38901 694.86266 571.50494 694.86133 568.59961 C 694.84933 513.83028 694.85352 459.06035 694.85352 404.29102 C 694.85352 376.58302 694.84185 348.87659 694.86719 321.16992 C 694.86985 318.42059 694.80964 315.67981 694.18164 313.00781 C 691.87764 303.18515 686.26375 295.98517 676.48242 293.0625 C 673.91042 292.294 671.38045 291.90591 668.93164 291.86719 z M 669.70703 302.80273 C 673.35915 302.92659 676.67991 304.49264 679.64258 307.32422 C 681.79858 309.38289 683.1822 311.93119 683.6582 314.86719 C 683.99154 316.92319 684.19203 319.02609 684.19336 321.10742 C 684.22403 359.11675 684.22251 397.12348 684.20117 435.13281 C 684.19984 436.89681 684.09712 438.68064 683.81445 440.41797 C 682.64379 447.62997 676.87016 452.97097 669.54883 453.18164 C 661.84616 453.40431 656.31618 448.67247 654.35352 442.11914 C 653.69352 439.91247 653.66602 437.67654 653.66602 435.42188 C 653.66735 416.25654 653.66602 397.09111 653.66602 377.92578 C 653.66602 359.08312 653.65293 340.23915 653.68359 321.39648 C 653.68626 319.31248 653.67328 317.17225 654.11328 315.15625 C 655.37461 309.37625 658.80139 305.31959 664.52539 303.54492 C 666.31956 302.98826 668.04698 302.74644 669.70703 302.80273 z "
             transform="matrix(0.75000002,0,0,-0.75000002,16.123583,841.43029)" /><path
             id="path90"
             style="fill:#1d1d1b;fill-opacity:1;fill-rule:evenodd;stroke:none;stroke-width:1.33333"
             d="M 669.23242 1.5585938 C 668.84374 1.5539003 668.45478 1.5597604 668.06836 1.5742188 C 658.29903 1.9382187 645.42777 9.8038962 643.75977 23.726562 C 643.41577 26.595896 643.3386 29.50901 643.33594 32.402344 C 643.30527 60.747676 643.31641 89.094121 643.31641 117.43945 C 643.31641 145.62479 643.3067 173.80881 643.33203 201.99414 C 643.33336 204.72614 643.37255 207.4795 643.69922 210.1875 C 645.17522 222.45283 655.2933 232.84902 669.66797 232.67969 C 682.5893 232.52902 692.88143 222.88111 694.49609 210.03711 C 694.77609 207.81178 694.84632 205.54745 694.84766 203.30078 C 694.86632 145.80212 694.86133 88.305926 694.86133 30.808594 C 694.86133 29.520594 694.8977 28.230026 694.8457 26.943359 C 694.20891 11.011943 681.28167 1.7040917 669.23242 1.5585938 z M 669.4668 12.300781 C 678.04146 11.959448 686.21215 18.962979 686.02148 28.820312 C 685.80815 39.862979 677.24423 45.106656 669.74023 45.222656 C 661.1069 45.357323 653.20413 39.086041 652.9668 28.859375 C 652.74013 19.114042 661.02546 11.914115 669.4668 12.300781 z "
             transform="matrix(0.75000002,0,0,-0.75000002,16.123583,841.43029)" /><g
             id="g92"
             transform="translate(1071.542,495.9521)"
             inkscape:export-xdpi="89"
             inkscape:export-ydpi="89"><path
               d="m 0,0 c 0.084,1.44 -0.238,2.839 -0.626,4.233 -1.713,6.155 -4.577,11.71 -8.905,16.416 -7.787,8.467 -17.21,13.941 -28.789,15.326 -0.72,0.086 -1.434,0.219 -2.143,0.368 -0.675,0.141 -0.998,0.602 -1.015,1.283 -0.015,0.603 -0.038,1.208 -0.038,1.812 -0.003,8.824 -0.002,17.648 0,26.472 0,0.605 -0.01,1.21 0.031,1.813 0.073,1.057 0.496,1.419 1.643,1.422 0.483,0.001 0.967,-0.031 1.448,-0.073 33.842,-2.937 65.241,-27.459 74.915,-61.578 1.685,-5.948 2.466,-12.038 2.498,-18.254 0.037,-7.563 -6.248,-18.351 -17.891,-19.004 -1.447,-0.081 -2.899,-0.106 -4.349,-0.107 -18.01,-0.007 -36.021,-0.004 -54.032,-0.004 -0.604,0 -1.209,-0.013 -1.813,0.01 -2.263,0.083 -2.434,0.215 -2.441,2.535 -0.022,8.099 -0.01,16.197 -0.005,24.296 0,0.481 0.028,0.966 0.075,1.445 0.073,0.711 0.541,1.064 1.202,1.097 1.085,0.053 2.173,0.053 3.261,0.053 11.121,0.002 22.242,-0.008 33.363,0.015 C -2.432,-0.421 -1.194,-0.722 0,0"
               style="fill:#1d1d1b;fill-opacity:1;fill-rule:evenodd;stroke:none"
               id="path94" /></g><g
             id="g96"
             transform="translate(603.8574,683.606)"
             inkscape:export-xdpi="89"
             inkscape:export-ydpi="89"><path
               d="m 0,0 c -0.897,2.336 -1.65,4.238 -2.36,6.157 -14.839,40.096 -29.673,80.194 -44.511,120.291 -0.461,1.246 -0.907,2.499 -1.429,3.72 -3.281,7.686 -1.603,15.53 4.541,21.132 5.975,5.449 14.529,6.584 21.551,2.766 4.171,-2.268 7.214,-5.496 8.802,-10.131 10.017,-29.248 20.112,-58.47 30.181,-87.701 0.237,-0.685 0.442,-1.382 0.713,-2.053 0.569,-1.404 0.581,-2.769 0.082,-4.224 C 12.005,33.736 6.474,17.503 0.918,1.278 0.811,0.965 0.521,0.714 0,0"
               style="fill:#1d1d1b;fill-opacity:1;fill-rule:evenodd;stroke:none"
               id="path98" /></g><g
             id="g100"
             transform="translate(1052.0166,690.043)"
             inkscape:export-xdpi="89"
             inkscape:export-ydpi="89"><path
               d="m 0,0 c -1.247,0.99 -1.407,2.24 -1.834,3.323 -4.333,11.012 -8.65,22.03 -12.966,33.049 -10.436,26.647 -20.87,53.296 -31.306,79.943 -0.132,0.337 -0.255,0.684 -0.429,0.998 -2.629,4.748 -1.927,9.84 -1.501,14.886 0.123,1.456 0.859,2.767 1.598,4.013 3.688,6.22 11.573,11.907 21.67,9.476 2.65,-0.637 4.968,-1.827 6.918,-3.739 3.334,-3.269 5.768,-7.101 7.37,-11.49 4.014,-11.002 8.067,-21.991 12.099,-32.987 5.446,-14.852 10.852,-29.718 16.372,-44.541 0.77,-2.067 0.772,-3.826 -0.02,-5.89 C 12.303,32.273 6.751,17.461 1.153,2.666 0.832,1.815 0.433,0.994 0,0"
               style="fill:#1d1d1b;fill-opacity:1;fill-rule:evenodd;stroke:none"
               id="path102" /></g><g
             id="g104"
             transform="translate(1030.0332,409.4766)"
             inkscape:export-xdpi="89"
             inkscape:export-ydpi="89"><path
               d="m 0,0 c 0,4.831 -0.021,9.663 0.012,14.494 0.011,1.765 0.082,1.797 1.809,2.038 2.99,0.416 5.99,0.774 8.9,1.611 8.42,2.419 15.152,7.296 20.534,14.134 1.045,1.328 2.07,2.672 3.149,3.973 1.638,1.974 3.639,3.528 5.852,4.803 4.667,2.689 9.626,3.09 14.683,1.486 C 63.622,39.784 69.305,31.514 68.77,22.646 68.576,19.45 67.54,16.513 65.959,13.749 64.631,11.426 62.957,9.372 61.107,7.452 57.313,3.514 53.049,0.162 48.359,-2.638 35.311,-10.425 21.207,-15.088 6.116,-16.774 c -1.434,-0.162 -2.894,-0.159 -4.342,-0.139 -1.436,0.019 -1.719,0.296 -1.753,1.694 -0.049,2.173 -0.027,4.348 -0.029,6.522 -0.004,2.899 -10e-4,5.798 -10e-4,8.697 z"
               style="fill:#1d1d1b;fill-opacity:1;fill-rule:evenodd;stroke:none"
               id="path106" /></g><g
             id="g108"
             transform="translate(947.3408,809.6265)"
             inkscape:export-xdpi="89"
             inkscape:export-ydpi="89"><path
               d="m 0,0 c 0.001,5.67 0.061,11.341 -0.036,17.009 -0.027,1.649 0.588,2.705 1.842,3.636 5.615,4.172 11.835,6.997 18.734,8.116 8.699,1.411 17.377,-3.655 20.678,-11.838 0.644,-1.595 0.959,-3.209 0.833,-4.94 C 41.894,9.82 41.816,7.649 41.785,5.48 41.769,4.366 41.551,3.322 41.085,2.333 38.227,-3.74 33.652,-7.662 26.931,-8.82 24.201,-9.291 21.438,-9.585 18.717,-10.098 12.31,-11.305 6.53,-13.856 1.695,-18.336 1.519,-18.5 1.341,-18.665 1.148,-18.81 0.712,-19.141 0.1,-18.943 0.073,-18.452 0.028,-17.61 0.003,-16.767 0.002,-15.924 -0.004,-10.616 -0.001,-5.308 0,0"
               style="fill:#1d1d1b;fill-opacity:1;fill-rule:evenodd;stroke:none"
               id="path110" /></g><g
             id="g120"
             transform="translate(803.30959,512.9248)"
             inkscape:export-xdpi="89"
             inkscape:export-ydpi="89"><path
               d="M 0,0 V -1.088"
               style="fill:none;stroke:#1d1d1b;stroke-width:2;stroke-linecap:round;stroke-linejoin:round;stroke-miterlimit:10;stroke-dasharray:none;stroke-opacity:1"
               id="path122" /></g></g></g></g></g></svg>
